<svg clip-rule="evenodd" fill-rule="evenodd" stroke-linejoin="round" stroke-miterlimit="2" viewBox="0 0 24 24" xmlns="http://www.w3.org/2000/svg"><g id="Icon"><g><path d="m14.278 12.093c1.935-.909 3.275-2.875 3.275-5.152 0-3.141-2.55-5.691-5.69-5.691-2.331 0-4.337 1.404-5.216 3.413-.529 1.209.024 2.62 1.233 3.149s2.621-.023 3.15-1.233c.14-.321.46-.546.833-.546.501 0 .907.407.907.908 0 .405-.265.749-.632.865-1.522.35-2.604 1.694-2.617 3.253-.049 1.346-.05 3.799-.05 3.799 0 1.32 1.072 2.392 2.392 2.392s2.391-1.072 2.391-2.392 0-1.496.024-2.765zm-.993-1.211c-.291.105-.487.377-.495.686-.036 1.352-.036 3.291-.036 3.291 0 .492-.399.891-.891.891s-.892-.399-.892-.891c0-.019.001-2.436.049-3.755.001-.008.001-.017.001-.025.003-.871.61-1.621 1.462-1.812.014-.003.028-.007.042-.011 1.007-.288 1.745-1.216 1.745-2.315 0-1.329-1.079-2.408-2.407-2.408-.987 0-1.836.595-2.208 1.445-.197.451-.723.657-1.174.46s-.657-.724-.459-1.174c.647-1.48 2.124-2.514 3.841-2.514 2.313 0 4.19 1.878 4.19 4.191 0 1.813-1.154 3.359-2.768 3.941z"></path><path d="m12 17.817c-1.361 0-2.467 1.105-2.467 2.466 0 1.362 1.106 2.467 2.467 2.467s2.467-1.105 2.467-2.467c0-1.361-1.106-2.466-2.467-2.466zm0 1.5c.534 0 .967.433.967.966 0 .534-.433.967-.967.967s-.967-.433-.967-.967c0-.533.433-.966.967-.966z"></path></g></g></svg>